<?xml version="1.0" encoding="UTF-8" standalone="no"?>
<!-- Created with Inkscape (http://www.inkscape.org/) -->

<svg
   xmlns:dc="http://purl.org/dc/elements/1.1/"
   xmlns:cc="http://creativecommons.org/ns#"
   xmlns:rdf="http://www.w3.org/1999/02/22-rdf-syntax-ns#"
   xmlns:svg="http://www.w3.org/2000/svg"
   xmlns="http://www.w3.org/2000/svg"
   xmlns:sodipodi="http://sodipodi.sourceforge.net/DTD/sodipodi-0.dtd"
   xmlns:inkscape="http://www.inkscape.org/namespaces/inkscape"
   version="1.1"
   id="svg2"
   width="225"
   height="225"
   viewBox="0 0 225 225"
   sodipodi:docname="email_bw.svg"
   inkscape:version="0.92.1 r15371">
  <metadata
     id="metadata8">
    <rdf:RDF>
      <cc:Work
         rdf:about="">
        <dc:format>image/svg+xml</dc:format>
        <dc:type
           rdf:resource="http://purl.org/dc/dcmitype/StillImage" />
        <dc:title></dc:title>
      </cc:Work>
    </rdf:RDF>
  </metadata>
  <defs
     id="defs6" />
  <sodipodi:namedview
     pagecolor="#ffffff"
     bordercolor="#666666"
     borderopacity="1"
     objecttolerance="10"
     gridtolerance="10"
     guidetolerance="10"
     inkscape:pageopacity="0"
     inkscape:pageshadow="2"
     inkscape:window-width="2416"
     inkscape:window-height="1542"
     id="namedview4"
     showgrid="false"
     inkscape:zoom="2.9667058"
     inkscape:cx="175.81139"
     inkscape:cy="78.06911"
     inkscape:window-x="430"
     inkscape:window-y="179"
     inkscape:window-maximized="0"
     inkscape:current-layer="svg2" />
  <path
     style="fill:#000000;stroke-width:1.13215673"
     d="M 92.714989,215.84323 C 56.716219,208.12797 26.938515,182.755 14.665629,149.33895 9.4776567,135.2134 8.489465,129.14346 8.528615,111.64239 8.5727691,91.910091 10.530778,82.729194 18.048865,67.003287 32.089783,37.633283 57.627673,16.719076 88.891696,8.9866941 c 14.098624,-3.4869522 35.437764,-3.4869522 49.536384,0 38.59763,9.5461759 67.76052,38.4741629 78.37958,77.7482509 1.70914,6.32116 2.12352,11.591227 2.04746,26.039605 -0.0855,16.23638 -0.40905,19.14611 -3.12104,28.06427 -11.20142,36.83493 -38.04455,63.19656 -74.90242,73.55885 -10.41597,2.92837 -37.41358,3.73946 -48.116671,1.44556 z m 72.220101,-66.55662 c -1.52405,-2.02373 -9.1144,-12.14467 -16.86745,-22.49096 l -14.09645,-18.81147 -9.50619,8.27601 -9.50619,8.276 -4.04594,-3.29741 c -2.22525,-1.81359 -6.57744,-5.53864 -9.67152,-8.27791 l -5.625594,-4.9805 -14.097877,18.81336 c -7.753836,10.34736 -15.344822,20.46915 -16.868875,22.49288 l -2.770999,3.67951 h 52.914045 52.91404 z M 75.931105,128.62475 c 8.369616,-11.20836 15.57328,-20.97244 16.008142,-21.69798 0.488344,-0.81476 -5.66649,-6.983388 -16.097119,-16.133235 -9.288282,-8.147747 -17.188426,-14.814079 -17.555891,-14.814079 -0.367464,0 -0.668108,17.176426 -0.668108,38.169864 0,32.33299 0.236677,37.91635 1.547749,36.51205 0.851257,-0.91179 8.39561,-10.82827 16.765227,-22.03662 z M 171.4682,76.236456 c -1.07214,-1.07213 -34.61519,29.369204 -33.81738,30.690314 0.43814,0.72554 8.21092,11.21285 17.27284,23.30513 l 16.47623,21.98597 0.29851,-37.72635 c 0.16419,-20.749486 0.0606,-37.96427 -0.2302,-38.255064 z m -26.20882,16.056519 25.9387,-22.540381 -27.84111,-0.302648 c -15.31263,-0.166461 -40.70548,-0.166461 -56.428581,0 l -28.587434,0.302648 28.213222,24.567428 c 27.634913,24.063868 28.259893,24.525888 30.489853,22.540388 1.25216,-1.11488 13.94906,-12.17022 28.21535,-24.567435 z"
     id="path4487"
     inkscape:connector-curvature="0" />
</svg>
