<?xml version="1.0" encoding="UTF-8" standalone="no"?>
<!-- Created with Inkscape (http://www.inkscape.org/) -->

<svg
   xmlns:dc="http://purl.org/dc/elements/1.1/"
   xmlns:cc="http://creativecommons.org/ns#"
   xmlns:rdf="http://www.w3.org/1999/02/22-rdf-syntax-ns#"
   xmlns:svg="http://www.w3.org/2000/svg"
   xmlns="http://www.w3.org/2000/svg"
   xmlns:sodipodi="http://sodipodi.sourceforge.net/DTD/sodipodi-0.dtd"
   xmlns:inkscape="http://www.inkscape.org/namespaces/inkscape"
   version="1.1"
   id="svg2"
   width="225"
   height="225"
   viewBox="0 0 225 225"
   sodipodi:docname="reddit_logo.svg"
   inkscape:version="0.92.1 r15371">
  <metadata
     id="metadata8">
    <rdf:RDF>
      <cc:Work
         rdf:about="">
        <dc:format>image/svg+xml</dc:format>
        <dc:type
           rdf:resource="http://purl.org/dc/dcmitype/StillImage" />
        <dc:title></dc:title>
      </cc:Work>
    </rdf:RDF>
  </metadata>
  <defs
     id="defs6" />
  <sodipodi:namedview
     pagecolor="#ffffff"
     bordercolor="#666666"
     borderopacity="1"
     objecttolerance="10"
     gridtolerance="10"
     guidetolerance="10"
     inkscape:pageopacity="0"
     inkscape:pageshadow="2"
     inkscape:window-width="2803"
     inkscape:window-height="1666"
     id="namedview4"
     showgrid="false"
     inkscape:zoom="4.1955556"
     inkscape:cx="223.53781"
     inkscape:cy="118.5587"
     inkscape:window-x="618"
     inkscape:window-y="292"
     inkscape:window-maximized="0"
     inkscape:current-layer="svg2" />
  <path
     style="fill:#000000"
     d="m 97.918375,223.47293 c -16.21125,-2.10382 -33.84389,-8.61328 -47.34798,-17.47949 -9.41251,-6.17985 -26.094684,-22.86203 -32.274534,-32.27453 -24.277379,-36.97677 -24.277379,-86.366653 0,-123.34342 6.17985,-9.412502 22.862024,-26.094679 32.274534,-32.274529 36.97676,-24.277379 86.366645,-24.277379 123.343415,0 9.4125,6.17985 26.09468,22.862027 32.27453,32.274529 24.27738,36.976767 24.27738,86.36665 0,123.34342 -6.17985,9.4125 -22.86203,26.09468 -32.27453,32.27453 -21.95466,14.4145 -49.96644,20.85741 -75.995435,17.47949 z m 38.823725,-46.9525 c 13.62201,-3.42708 25.89254,-9.87251 34.05008,-17.88572 8.63915,-8.48629 12.19529,-15.59011 12.78592,-25.54142 0.34895,-5.87913 0.78422,-7.24611 2.81627,-8.84452 5.99926,-4.71902 7.98922,-14.56366 4.37563,-21.64688 -4.81167,-9.431644 -17.27896,-12.941851 -25.19062,-7.092504 l -2.85571,2.111319 -4.37695,-2.565059 c -9.04858,-5.302822 -19.63848,-8.371651 -38.44729,-11.141575 -3.937,-0.579792 -4.06034,0.5532 2.03304,-18.676017 2.58234,-8.149225 4.48492,-12.645696 5.22981,-12.359856 0.64396,0.24711 6.61704,1.696895 13.27352,3.221744 l 12.10268,2.772453 0.59388,3.713871 c 0.42082,2.631662 1.76261,4.769755 4.60468,7.337403 3.57052,3.225743 4.60587,3.623532 9.43122,3.623532 4.38853,0 6.01293,-0.49859 8.53303,-2.619116 4.01033,-3.374469 6.04081,-7.367956 6.04081,-11.880884 0,-13.496576 -17.1466,-19.42454 -25.80438,-8.921153 l -2.90986,3.530166 -14.39288,-3.392137 c -7.91608,-1.865676 -14.93361,-3.200411 -15.59451,-2.966079 -0.6609,0.234333 -1.64778,1.848767 -2.19308,3.587631 -0.54529,1.738865 -3.06413,9.755618 -5.59742,17.815007 l -4.60597,14.653434 -7.20095,0.675459 c -11.731935,1.10047 -23.784495,4.324313 -32.936775,8.809994 l -8.58507,4.207678 -4.24684,-2.25 c -2.33576,-1.2375 -5.76551,-2.25 -7.62167,-2.25 -3.84181,0 -9.81692,2.258913 -12.66523,4.788138 -2.77066,2.460282 -5.60144,9.137091 -5.60144,13.211861 0,4.41493 2.98086,11.07167 6.08045,13.5786 2.05084,1.65871 2.38088,2.81006 2.41404,8.4214 0.12463,21.08894 24.33419,41.12321 55.46159,45.89642 10.146125,1.55585 31.073265,0.57422 40.999995,-1.92319 z M 96.742105,160.01586 c -5.34627,-1.65383 -11.66163,-6.58911 -10.60969,-8.29118 1.00549,-1.62693 4.11701,-1.47605 5.56601,0.26989 5.63137,6.78539 35.455975,6.78539 41.087355,0 1.449,-1.74594 4.56051,-1.89682 5.56601,-0.26989 1.09714,1.77521 -5.3715,6.67097 -11.04119,8.35647 -6.29391,1.87107 -24.43415,1.83232 -30.568495,-0.0653 z m -12.61189,-27.44873 c -3.58854,-1.44993 -6.38811,-5.93396 -6.38811,-10.23171 0,-11.03403 15.24789,-13.61919 19.55321,-3.31509 2.23537,5.34997 -0.44281,11.59553 -5.76842,13.45205 -3.57346,1.24571 -4.51813,1.25781 -7.39668,0.0947 z m 47.999755,-0.56062 c -6.38325,-3.23164 -7.60081,-11.40022 -2.46479,-16.53623 6.54151,-6.54152 17.07692,-2.02991 17.07692,7.31291 0,3.49735 -0.56645,4.93252 -2.78618,7.05915 -3.56076,3.41144 -7.822,4.19125 -11.82595,2.16417 z M 39.281135,117.96643 c -4.57155,-6.97707 -2.19755,-15.3557 5.28922,-18.667456 3.82816,-1.693376 5.02675,-1.812183 8.32202,-0.824897 2.11735,0.634374 3.84973,1.395874 3.84973,1.692213 0,0.29634 -2.0622,2.601 -4.58265,5.12146 -2.52046,2.52045 -5.93842,6.98493 -7.59546,9.92105 -1.65705,2.93612 -3.1431,5.3384 -3.30234,5.3384 -0.15924,0 -1.05048,-1.16135 -1.98052,-2.58077 z M 178.78734,114.4535 c -1.90012,-3.31599 -5.39785,-7.82014 -7.77272,-10.00922 l -4.31795,-3.98015 3.49059,-1.458464 c 4.42277,-1.84795 5.17164,-1.815674 10.1307,0.436641 4.28072,1.944223 7.42414,6.716693 7.42414,11.271623 0,2.58258 -3.13214,9.06345 -4.59012,9.49766 -0.50043,0.14904 -2.46452,-2.4421 -4.36464,-5.75809 z M 160.66518,65.624124 c -3.26986,-3.269853 -3.71505,-6.644735 -1.45346,-11.018166 3.14325,-6.07839 12.96346,-5.989528 16.13627,0.146017 4.9854,9.640696 -7.02268,18.532287 -14.68281,10.872149 z"
     id="path4487"
     inkscape:connector-curvature="0" />
</svg>
