<?xml version="1.0" encoding="UTF-8" standalone="no"?>
<!-- Created with Inkscape (http://www.inkscape.org/) -->

<svg
   xmlns:dc="http://purl.org/dc/elements/1.1/"
   xmlns:cc="http://creativecommons.org/ns#"
   xmlns:rdf="http://www.w3.org/1999/02/22-rdf-syntax-ns#"
   xmlns:svg="http://www.w3.org/2000/svg"
   xmlns="http://www.w3.org/2000/svg"
   xmlns:sodipodi="http://sodipodi.sourceforge.net/DTD/sodipodi-0.dtd"
   xmlns:inkscape="http://www.inkscape.org/namespaces/inkscape"
   width="260"
   height="260"
   id="svg3167"
   version="1.1"
   inkscape:version="0.92.1 r15371"
   sodipodi:docname="stormlike_cloud_only.svg">
  <title
     id="title3206">stormlike_logo_small_color</title>
  <defs
     id="defs3169" />
  <sodipodi:namedview
     id="base"
     pagecolor="#ffffff"
     bordercolor="#666666"
     borderopacity="1.0"
     inkscape:pageopacity="0.0"
     inkscape:pageshadow="2"
     inkscape:zoom="2.8"
     inkscape:cx="33.8227"
     inkscape:cy="54.68522"
     inkscape:document-units="px"
     inkscape:current-layer="layer1"
     showgrid="false"
     inkscape:window-width="2651"
     inkscape:window-height="1656"
     inkscape:window-x="466"
     inkscape:window-y="232"
     inkscape:window-maximized="0" />
  <metadata
     id="metadata3172">
    <rdf:RDF>
      <cc:Work
         rdf:about="">
        <dc:format>image/svg+xml</dc:format>
        <dc:type
           rdf:resource="http://purl.org/dc/dcmitype/StillImage" />
        <dc:title>stormlike_logo_small_color</dc:title>
      </cc:Work>
    </rdf:RDF>
  </metadata>
  <g
     inkscape:label="Layer 1"
     inkscape:groupmode="layer"
     id="layer1"
     transform="translate(0,-792.36218)">
    <path
       inkscape:connector-curvature="0"
       style="fill:#d4aa00;stroke-width:4.68496227"
       d="m 102.95534,1048.4157 c 0,-0.1734 2.64933,-12.6293 5.88748,-27.6835 3.23815,-15.0542 5.88749,-27.47915 5.88749,-27.6108 0,-0.13118 -4.7652,-0.23893 -10.58932,-0.23893 -6.737366,0 -10.529834,-0.17335 -10.425786,-0.48162 0.08995,-0.26704 5.683071,-15.43086 12.429206,-33.70315 l 12.26561,-33.22154 h 15.05287 15.05286 l -4.55827,9.406 c -2.50709,5.17314 -7.79061,15.83564 -11.74116,23.6942 -3.95055,7.85902 -7.18288,14.50652 -7.18288,14.77216 0,0.29983 4.55452,0.53221 12.15918,0.61419 l 12.15918,0.13118 -23.19826,37.32881 c -12.75901,20.5314 -23.1982,37.1888 -23.1982,37.0169 z"
       id="path3085" />
    <path
       inkscape:connector-curvature="0"
       style="fill:#800000;stroke-width:4.68496227"
       d="M 41.740985,953.73445 C 32.925572,952.43812 24.846418,948.29615 18.026469,941.57744 9.1069418,932.78986 5.0692444,923.15242 5.1300341,910.7949 5.2386597,888.70296 21.154934,871.03503 43.62821,868.05961 c 2.236812,-0.29516 2.25015,-0.30921 3.126645,-3.08927 4.052601,-12.85507 15.220146,-25.17699 27.998128,-30.89264 7.271722,-3.25277 18.153658,-5.34695 24.0037,-4.61891 l 2.579217,0.32327 2.49281,-3.413 c 13.04607,-17.86325 34.79923,-27.71881 56.39219,-25.54939 15.33222,1.54041 27.75084,7.36775 38.4695,18.05148 8.55666,8.5286 14.01134,18.12715 16.94203,29.81145 0.3889,1.55072 0.67778,1.74093 4.82848,3.18156 16.33087,5.66833 28.59033,18.61476 33.36511,35.2356 5.21114,18.13971 0.10803,37.93039 -13.23965,51.34625 -8.18327,8.22492 -18.39576,13.36245 -30.03524,15.10994 -5.75562,0.86391 -43.84854,1.05225 -46.81598,0.22957 -5.73879,-1.58727 -8.73647,-7.35305 -6.54228,-12.58287 0.90711,-2.16211 2.38838,-3.82247 4.39217,-4.92343 1.28707,-0.70696 4.33615,-0.8447 24.28593,-1.09816 19.57696,-0.2483 23.22424,-0.40759 25.70466,-1.13282 6.77237,-1.97518 13.00475,-5.9841 17.40043,-11.19144 2.46571,-2.92154 6.04394,-10.10078 6.98536,-14.01553 0.91525,-3.80607 0.80932,-11.78362 -0.20684,-15.58031 -3.23233,-12.07737 -13.05496,-21.6867 -24.8261,-24.28638 -6.64327,-1.4678 -7.22533,-1.64864 -8.88628,-2.76366 -2.21122,-1.48373 -3.78615,-4.74868 -4.39826,-9.11787 -1.26453,-9.02605 -5.52035,-17.61687 -12.01825,-24.25874 -6.10955,-6.24552 -13.06892,-10.1837 -21.65482,-12.25493 -4.5912,-1.10743 -14.49028,-1.11567 -18.98313,-0.014 -12.38174,3.03117 -22.66992,10.91643 -28.8315,22.09663 -2.14628,3.8946 -3.94898,5.59197 -6.9608,6.55285 -1.50576,0.48068 -2.89181,0.44507 -7.35937,-0.19208 -11.655693,-1.66504 -20.624248,1.28415 -28.858102,9.48845 -5.258913,5.24013 -7.818589,9.99397 -9.312633,17.29548 -1.462566,7.14738 -2.700796,9.17737 -6.583483,10.79228 -1.572812,0.65449 -2.80291,0.75194 -6.195127,0.49005 -7.347347,-0.56595 -13.6563,1.49918 -18.75412,6.13917 -13.589492,12.36924 -9.141592,34.22131 8.267979,40.62003 2.799022,1.02882 3.89684,1.09535 22.323453,1.35396 22.048614,0.3092 21.814966,0.26704 24.590698,4.40292 1.353369,2.01641 1.474517,2.51817 1.316685,5.45049 -0.206841,3.84307 -1.535744,6.13543 -4.556711,7.86043 -1.955522,1.11643 -2.116797,1.12579 -20.61473,1.20029 -10.254048,0.0469 -20.027601,-0.1265 -21.718985,-0.3748 z"
       id="path3042-4-1" />
    <g
       transform="matrix(0.48815519,0,0,0.48815519,9.7860731,795.94965)"
       style="font-style:normal;font-weight:normal;font-size:40px;line-height:125%;font-family:Sans;letter-spacing:0px;word-spacing:0px;fill:#800000;fill-opacity:1;stroke:none"
       id="flowRoot3010-7" />
  </g>
</svg>
